<svg xmlns="http://www.w3.org/2000/svg" width="112" height="88" viewBox="0 0 112 88">
  <ellipse cx="56" cy="78" rx="44" ry="8" fill="#3E2723" opacity="0.18"/>
  <path d="M16 70 C8 54 16 32 36 26 C48 12 76 12 88 26 C102 34 106 54 98 68 C92 78 76 80 56 80 C36 80 22 78 16 70 Z" fill="#9E9E9E" stroke="#4E342E" stroke-width="6" stroke-linejoin="round"/>
  <path d="M22 70 C44 78 80 78 98 66 C94 74 80 77 56 77 C38 77 26 75 22 70 Z" fill="#757575"/>
  <path d="M34 34 C44 22 66 20 76 28 C66 30 50 34 42 44 C38 42 35 38 34 34 Z" fill="#BDBDBD"/>
</svg>
