<svg xmlns="http://www.w3.org/2000/svg" width="512" height="552" viewBox="0 0 512 552">
<g transform="translate(0,48)"><g transform="scale(1.3333333333333333,1.5)"><g transform="translate(192,192) scale(1.0) translate(-192,-192)"><g transform="translate(203,127) scale(0.85)"><g transform="scale(1,1)"><ellipse cx="3" cy="15" rx="15" ry="6" fill="#4E342E" opacity="0.16"/>
  <path d="M-9 -8 L-9 15" stroke="#4E342E" stroke-width="4" stroke-linecap="round" fill="none"/>
  <path d="M-10 -7 L-10 14" stroke="#A58050" stroke-width="1.5" stroke-linecap="round" fill="none"/>
  <path d="M9 -8 L9 15" stroke="#4E342E" stroke-width="4" stroke-linecap="round" fill="none"/>
  <path d="M8 -7 L8 14" stroke="#A58050" stroke-width="1.5" stroke-linecap="round" fill="none"/>
  <path d="M-9 9 L9 9" stroke="#8F6C46" stroke-width="3" stroke-linecap="round" fill="none"/>
  <path d="M-13 -29 L-13 13" stroke="#4E342E" stroke-width="4" stroke-linecap="round" fill="none"/>
  <path d="M-14 -28 L-14 12" stroke="#B08A56" stroke-width="1.5" stroke-linecap="round" fill="none"/>
  <path d="M-5 -29 L-5 13" stroke="#4E342E" stroke-width="4" stroke-linecap="round" fill="none"/>
  <path d="M-6 -28 L-6 12" stroke="#B08A56" stroke-width="1.5" stroke-linecap="round" fill="none"/>
  <path d="M-16 -31 L-2 -31 L-2 -16 L-16 -16 Z" fill="#B9905B" stroke="#4E342E" stroke-width="2" stroke-linejoin="round" stroke-linecap="round"/>
  <path d="M-12 -29 L-12 -18" stroke="#DFC08A" stroke-width="1.5" stroke-linecap="round" fill="none"/>
  <path d="M-7 -29 L-7 -18" stroke="#8E693D" stroke-width="1" stroke-linecap="round" fill="none"/>
  <path d="M-14 -11 L12 -11 L14 0 L-12 1 Z" fill="#936C43" stroke="#4E342E" stroke-width="2" stroke-linejoin="round" stroke-linecap="round"/>
  <path d="M-14 -13 Q0 -17 12 -13 L14 -5 Q0 -1 -12 -4 Z" fill="#D5B57E" stroke="#4E342E" stroke-width="2" stroke-linejoin="round" stroke-linecap="round"/>
  <path d="M-9 -11 L9 -11" stroke="#A58050" stroke-width="1.5" stroke-linecap="round" fill="none"/>
</g></g><g transform="translate(265,127) scale(0.85)"><g transform="scale(-1,1)"><ellipse cx="3" cy="15" rx="15" ry="6" fill="#4E342E" opacity="0.16"/>
  <path d="M-9 -8 L-9 15" stroke="#4E342E" stroke-width="4" stroke-linecap="round" fill="none"/>
  <path d="M-10 -7 L-10 14" stroke="#A58050" stroke-width="1.5" stroke-linecap="round" fill="none"/>
  <path d="M9 -8 L9 15" stroke="#4E342E" stroke-width="4" stroke-linecap="round" fill="none"/>
  <path d="M8 -7 L8 14" stroke="#A58050" stroke-width="1.5" stroke-linecap="round" fill="none"/>
  <path d="M-9 9 L9 9" stroke="#8F6C46" stroke-width="3" stroke-linecap="round" fill="none"/>
  <path d="M-13 -29 L-13 13" stroke="#4E342E" stroke-width="4" stroke-linecap="round" fill="none"/>
  <path d="M-14 -28 L-14 12" stroke="#B08A56" stroke-width="1.5" stroke-linecap="round" fill="none"/>
  <path d="M-5 -29 L-5 13" stroke="#4E342E" stroke-width="4" stroke-linecap="round" fill="none"/>
  <path d="M-6 -28 L-6 12" stroke="#B08A56" stroke-width="1.5" stroke-linecap="round" fill="none"/>
  <path d="M-16 -31 L-2 -31 L-2 -16 L-16 -16 Z" fill="#B9905B" stroke="#4E342E" stroke-width="2" stroke-linejoin="round" stroke-linecap="round"/>
  <path d="M-12 -29 L-12 -18" stroke="#DFC08A" stroke-width="1.5" stroke-linecap="round" fill="none"/>
  <path d="M-7 -29 L-7 -18" stroke="#8E693D" stroke-width="1" stroke-linecap="round" fill="none"/>
  <path d="M-14 -11 L12 -11 L14 0 L-12 1 Z" fill="#936C43" stroke="#4E342E" stroke-width="2" stroke-linejoin="round" stroke-linecap="round"/>
  <path d="M-14 -13 Q0 -17 12 -13 L14 -5 Q0 -1 -12 -4 Z" fill="#D5B57E" stroke="#4E342E" stroke-width="2" stroke-linejoin="round" stroke-linecap="round"/>
  <path d="M-9 -11 L9 -11" stroke="#A58050" stroke-width="1.5" stroke-linecap="round" fill="none"/>
</g></g><g transform="translate(295,127) scale(0.85)"><g transform="scale(1,1)"><ellipse cx="3" cy="15" rx="15" ry="6" fill="#4E342E" opacity="0.16"/>
  <path d="M-9 -8 L-9 15" stroke="#4E342E" stroke-width="4" stroke-linecap="round" fill="none"/>
  <path d="M-10 -7 L-10 14" stroke="#A58050" stroke-width="1.5" stroke-linecap="round" fill="none"/>
  <path d="M9 -8 L9 15" stroke="#4E342E" stroke-width="4" stroke-linecap="round" fill="none"/>
  <path d="M8 -7 L8 14" stroke="#A58050" stroke-width="1.5" stroke-linecap="round" fill="none"/>
  <path d="M-9 9 L9 9" stroke="#8F6C46" stroke-width="3" stroke-linecap="round" fill="none"/>
  <path d="M-13 -29 L-13 13" stroke="#4E342E" stroke-width="4" stroke-linecap="round" fill="none"/>
  <path d="M-14 -28 L-14 12" stroke="#B08A56" stroke-width="1.5" stroke-linecap="round" fill="none"/>
  <path d="M-5 -29 L-5 13" stroke="#4E342E" stroke-width="4" stroke-linecap="round" fill="none"/>
  <path d="M-6 -28 L-6 12" stroke="#B08A56" stroke-width="1.5" stroke-linecap="round" fill="none"/>
  <path d="M-16 -31 L-2 -31 L-2 -16 L-16 -16 Z" fill="#B9905B" stroke="#4E342E" stroke-width="2" stroke-linejoin="round" stroke-linecap="round"/>
  <path d="M-12 -29 L-12 -18" stroke="#DFC08A" stroke-width="1.5" stroke-linecap="round" fill="none"/>
  <path d="M-7 -29 L-7 -18" stroke="#8E693D" stroke-width="1" stroke-linecap="round" fill="none"/>
  <path d="M-14 -11 L12 -11 L14 0 L-12 1 Z" fill="#936C43" stroke="#4E342E" stroke-width="2" stroke-linejoin="round" stroke-linecap="round"/>
  <path d="M-14 -13 Q0 -17 12 -13 L14 -5 Q0 -1 -12 -4 Z" fill="#D5B57E" stroke="#4E342E" stroke-width="2" stroke-linejoin="round" stroke-linecap="round"/>
  <path d="M-9 -11 L9 -11" stroke="#A58050" stroke-width="1.5" stroke-linecap="round" fill="none"/>
</g></g><g transform="translate(357,127) scale(0.85)"><g transform="scale(-1,1)"><ellipse cx="3" cy="15" rx="15" ry="6" fill="#4E342E" opacity="0.16"/>
  <path d="M-9 -8 L-9 15" stroke="#4E342E" stroke-width="4" stroke-linecap="round" fill="none"/>
  <path d="M-10 -7 L-10 14" stroke="#A58050" stroke-width="1.5" stroke-linecap="round" fill="none"/>
  <path d="M9 -8 L9 15" stroke="#4E342E" stroke-width="4" stroke-linecap="round" fill="none"/>
  <path d="M8 -7 L8 14" stroke="#A58050" stroke-width="1.5" stroke-linecap="round" fill="none"/>
  <path d="M-9 9 L9 9" stroke="#8F6C46" stroke-width="3" stroke-linecap="round" fill="none"/>
  <path d="M-13 -29 L-13 13" stroke="#4E342E" stroke-width="4" stroke-linecap="round" fill="none"/>
  <path d="M-14 -28 L-14 12" stroke="#B08A56" stroke-width="1.5" stroke-linecap="round" fill="none"/>
  <path d="M-5 -29 L-5 13" stroke="#4E342E" stroke-width="4" stroke-linecap="round" fill="none"/>
  <path d="M-6 -28 L-6 12" stroke="#B08A56" stroke-width="1.5" stroke-linecap="round" fill="none"/>
  <path d="M-16 -31 L-2 -31 L-2 -16 L-16 -16 Z" fill="#B9905B" stroke="#4E342E" stroke-width="2" stroke-linejoin="round" stroke-linecap="round"/>
  <path d="M-12 -29 L-12 -18" stroke="#DFC08A" stroke-width="1.5" stroke-linecap="round" fill="none"/>
  <path d="M-7 -29 L-7 -18" stroke="#8E693D" stroke-width="1" stroke-linecap="round" fill="none"/>
  <path d="M-14 -11 L12 -11 L14 0 L-12 1 Z" fill="#936C43" stroke="#4E342E" stroke-width="2" stroke-linejoin="round" stroke-linecap="round"/>
  <path d="M-14 -13 Q0 -17 12 -13 L14 -5 Q0 -1 -12 -4 Z" fill="#D5B57E" stroke="#4E342E" stroke-width="2" stroke-linejoin="round" stroke-linecap="round"/>
  <path d="M-9 -11 L9 -11" stroke="#A58050" stroke-width="1.5" stroke-linecap="round" fill="none"/>
</g></g><g transform="translate(203,246) scale(0.85)"><g transform="scale(1,1)"><ellipse cx="3" cy="15" rx="15" ry="6" fill="#4E342E" opacity="0.16"/>
  <path d="M-9 -8 L-9 15" stroke="#4E342E" stroke-width="4" stroke-linecap="round" fill="none"/>
  <path d="M-10 -7 L-10 14" stroke="#A58050" stroke-width="1.5" stroke-linecap="round" fill="none"/>
  <path d="M9 -8 L9 15" stroke="#4E342E" stroke-width="4" stroke-linecap="round" fill="none"/>
  <path d="M8 -7 L8 14" stroke="#A58050" stroke-width="1.5" stroke-linecap="round" fill="none"/>
  <path d="M-9 9 L9 9" stroke="#8F6C46" stroke-width="3" stroke-linecap="round" fill="none"/>
  <path d="M-13 -29 L-13 13" stroke="#4E342E" stroke-width="4" stroke-linecap="round" fill="none"/>
  <path d="M-14 -28 L-14 12" stroke="#B08A56" stroke-width="1.5" stroke-linecap="round" fill="none"/>
  <path d="M-5 -29 L-5 13" stroke="#4E342E" stroke-width="4" stroke-linecap="round" fill="none"/>
  <path d="M-6 -28 L-6 12" stroke="#B08A56" stroke-width="1.5" stroke-linecap="round" fill="none"/>
  <path d="M-16 -31 L-2 -31 L-2 -16 L-16 -16 Z" fill="#B9905B" stroke="#4E342E" stroke-width="2" stroke-linejoin="round" stroke-linecap="round"/>
  <path d="M-12 -29 L-12 -18" stroke="#DFC08A" stroke-width="1.5" stroke-linecap="round" fill="none"/>
  <path d="M-7 -29 L-7 -18" stroke="#8E693D" stroke-width="1" stroke-linecap="round" fill="none"/>
  <path d="M-14 -11 L12 -11 L14 0 L-12 1 Z" fill="#936C43" stroke="#4E342E" stroke-width="2" stroke-linejoin="round" stroke-linecap="round"/>
  <path d="M-14 -13 Q0 -17 12 -13 L14 -5 Q0 -1 -12 -4 Z" fill="#D5B57E" stroke="#4E342E" stroke-width="2" stroke-linejoin="round" stroke-linecap="round"/>
  <path d="M-9 -11 L9 -11" stroke="#A58050" stroke-width="1.5" stroke-linecap="round" fill="none"/>
</g></g><g transform="translate(265,246) scale(0.85)"><g transform="scale(-1,1)"><ellipse cx="3" cy="15" rx="15" ry="6" fill="#4E342E" opacity="0.16"/>
  <path d="M-9 -8 L-9 15" stroke="#4E342E" stroke-width="4" stroke-linecap="round" fill="none"/>
  <path d="M-10 -7 L-10 14" stroke="#A58050" stroke-width="1.5" stroke-linecap="round" fill="none"/>
  <path d="M9 -8 L9 15" stroke="#4E342E" stroke-width="4" stroke-linecap="round" fill="none"/>
  <path d="M8 -7 L8 14" stroke="#A58050" stroke-width="1.5" stroke-linecap="round" fill="none"/>
  <path d="M-9 9 L9 9" stroke="#8F6C46" stroke-width="3" stroke-linecap="round" fill="none"/>
  <path d="M-13 -29 L-13 13" stroke="#4E342E" stroke-width="4" stroke-linecap="round" fill="none"/>
  <path d="M-14 -28 L-14 12" stroke="#B08A56" stroke-width="1.5" stroke-linecap="round" fill="none"/>
  <path d="M-5 -29 L-5 13" stroke="#4E342E" stroke-width="4" stroke-linecap="round" fill="none"/>
  <path d="M-6 -28 L-6 12" stroke="#B08A56" stroke-width="1.5" stroke-linecap="round" fill="none"/>
  <path d="M-16 -31 L-2 -31 L-2 -16 L-16 -16 Z" fill="#B9905B" stroke="#4E342E" stroke-width="2" stroke-linejoin="round" stroke-linecap="round"/>
  <path d="M-12 -29 L-12 -18" stroke="#DFC08A" stroke-width="1.5" stroke-linecap="round" fill="none"/>
  <path d="M-7 -29 L-7 -18" stroke="#8E693D" stroke-width="1" stroke-linecap="round" fill="none"/>
  <path d="M-14 -11 L12 -11 L14 0 L-12 1 Z" fill="#936C43" stroke="#4E342E" stroke-width="2" stroke-linejoin="round" stroke-linecap="round"/>
  <path d="M-14 -13 Q0 -17 12 -13 L14 -5 Q0 -1 -12 -4 Z" fill="#D5B57E" stroke="#4E342E" stroke-width="2" stroke-linejoin="round" stroke-linecap="round"/>
  <path d="M-9 -11 L9 -11" stroke="#A58050" stroke-width="1.5" stroke-linecap="round" fill="none"/>
</g></g><g transform="translate(295,246) scale(0.85)"><g transform="scale(1,1)"><ellipse cx="3" cy="15" rx="15" ry="6" fill="#4E342E" opacity="0.16"/>
  <path d="M-9 -8 L-9 15" stroke="#4E342E" stroke-width="4" stroke-linecap="round" fill="none"/>
  <path d="M-10 -7 L-10 14" stroke="#A58050" stroke-width="1.5" stroke-linecap="round" fill="none"/>
  <path d="M9 -8 L9 15" stroke="#4E342E" stroke-width="4" stroke-linecap="round" fill="none"/>
  <path d="M8 -7 L8 14" stroke="#A58050" stroke-width="1.5" stroke-linecap="round" fill="none"/>
  <path d="M-9 9 L9 9" stroke="#8F6C46" stroke-width="3" stroke-linecap="round" fill="none"/>
  <path d="M-13 -29 L-13 13" stroke="#4E342E" stroke-width="4" stroke-linecap="round" fill="none"/>
  <path d="M-14 -28 L-14 12" stroke="#B08A56" stroke-width="1.5" stroke-linecap="round" fill="none"/>
  <path d="M-5 -29 L-5 13" stroke="#4E342E" stroke-width="4" stroke-linecap="round" fill="none"/>
  <path d="M-6 -28 L-6 12" stroke="#B08A56" stroke-width="1.5" stroke-linecap="round" fill="none"/>
  <path d="M-16 -31 L-2 -31 L-2 -16 L-16 -16 Z" fill="#B9905B" stroke="#4E342E" stroke-width="2" stroke-linejoin="round" stroke-linecap="round"/>
  <path d="M-12 -29 L-12 -18" stroke="#DFC08A" stroke-width="1.5" stroke-linecap="round" fill="none"/>
  <path d="M-7 -29 L-7 -18" stroke="#8E693D" stroke-width="1" stroke-linecap="round" fill="none"/>
  <path d="M-14 -11 L12 -11 L14 0 L-12 1 Z" fill="#936C43" stroke="#4E342E" stroke-width="2" stroke-linejoin="round" stroke-linecap="round"/>
  <path d="M-14 -13 Q0 -17 12 -13 L14 -5 Q0 -1 -12 -4 Z" fill="#D5B57E" stroke="#4E342E" stroke-width="2" stroke-linejoin="round" stroke-linecap="round"/>
  <path d="M-9 -11 L9 -11" stroke="#A58050" stroke-width="1.5" stroke-linecap="round" fill="none"/>
</g></g><g transform="translate(357,246) scale(0.85)"><g transform="scale(-1,1)"><ellipse cx="3" cy="15" rx="15" ry="6" fill="#4E342E" opacity="0.16"/>
  <path d="M-9 -8 L-9 15" stroke="#4E342E" stroke-width="4" stroke-linecap="round" fill="none"/>
  <path d="M-10 -7 L-10 14" stroke="#A58050" stroke-width="1.5" stroke-linecap="round" fill="none"/>
  <path d="M9 -8 L9 15" stroke="#4E342E" stroke-width="4" stroke-linecap="round" fill="none"/>
  <path d="M8 -7 L8 14" stroke="#A58050" stroke-width="1.5" stroke-linecap="round" fill="none"/>
  <path d="M-9 9 L9 9" stroke="#8F6C46" stroke-width="3" stroke-linecap="round" fill="none"/>
  <path d="M-13 -29 L-13 13" stroke="#4E342E" stroke-width="4" stroke-linecap="round" fill="none"/>
  <path d="M-14 -28 L-14 12" stroke="#B08A56" stroke-width="1.5" stroke-linecap="round" fill="none"/>
  <path d="M-5 -29 L-5 13" stroke="#4E342E" stroke-width="4" stroke-linecap="round" fill="none"/>
  <path d="M-6 -28 L-6 12" stroke="#B08A56" stroke-width="1.5" stroke-linecap="round" fill="none"/>
  <path d="M-16 -31 L-2 -31 L-2 -16 L-16 -16 Z" fill="#B9905B" stroke="#4E342E" stroke-width="2" stroke-linejoin="round" stroke-linecap="round"/>
  <path d="M-12 -29 L-12 -18" stroke="#DFC08A" stroke-width="1.5" stroke-linecap="round" fill="none"/>
  <path d="M-7 -29 L-7 -18" stroke="#8E693D" stroke-width="1" stroke-linecap="round" fill="none"/>
  <path d="M-14 -11 L12 -11 L14 0 L-12 1 Z" fill="#936C43" stroke="#4E342E" stroke-width="2" stroke-linejoin="round" stroke-linecap="round"/>
  <path d="M-14 -13 Q0 -17 12 -13 L14 -5 Q0 -1 -12 -4 Z" fill="#D5B57E" stroke="#4E342E" stroke-width="2" stroke-linejoin="round" stroke-linecap="round"/>
  <path d="M-9 -11 L9 -11" stroke="#A58050" stroke-width="1.5" stroke-linecap="round" fill="none"/>
</g></g></g></g></g></svg>
