<svg xmlns="http://www.w3.org/2000/svg" width="64" height="112" viewBox="0 0 64 112"><ellipse cx="32" cy="105" rx="19" ry="5" fill="#4E342E22"/><path d="M20,17 Q19,11 32,10 Q45,11 44,17 L43,104 Q32,110 21,104 Z" fill="#A97949" stroke="#4E342E" stroke-width="6" stroke-linejoin="round" stroke-linecap="round"/><path d="M20,17 Q32,23 44,17 Q44,9 32,10 Q20,9 20,17 Z" fill="#D5B57B" stroke="#4E342E" stroke-width="3" stroke-linejoin="round" stroke-linecap="round"/><path d="M25,26 L25,96" fill="none" stroke="#D5B57B" stroke-width="3" stroke-linecap="round"/><path d="M34,29 Q29,43 35,55 Q39,66 34,82" fill="none" stroke="#4E342E" stroke-width="2" stroke-linejoin="round" stroke-linecap="round"/><path d="M18,45 L46,45" fill="none" stroke="#DBC38B" stroke-width="4" stroke-linecap="round"/><path d="M18,50 L46,50" fill="none" stroke="#DBC38B" stroke-width="4" stroke-linecap="round"/><path d="M18,55 L46,55" fill="none" stroke="#DBC38B" stroke-width="4" stroke-linecap="round"/><path d="M23,54 Q12,62 19,68 Q27,70 31,54" fill="none" stroke="#4E342E" stroke-width="3" stroke-linejoin="round" stroke-linecap="round"/></svg>
